<svg xmlns="http://www.w3.org/2000/svg" width="256" height="174" fill="none" viewBox="0 0 256 174"><g clip-path="url(#clip0_6_2)"><path fill="#D3D6ED" fill-rule="evenodd" d="M115.726 103.906C114.954 103.033 114.035 102.752 113.447 101.792L96.7057 116.591C95.8551 117.342 94.763 117.714 93.6275 117.65C92.492 117.58 91.4515 117.07 90.7 116.219L80.5467 104.732C78.1023 101.97 73.8639 101.708 71.0953 104.15C68.3289 106.598 68.0688 110.837 70.5152 113.603L77.7658 121.808C79.2956 123.536 80.0574 125.755 79.915 128.057C79.7746 130.359 78.7444 132.469 77.0164 133.997C75.2904 135.52 73.0711 136.288 70.7671 136.146C68.4631 136.001 66.3552 134.973 64.8295 133.243L48.8708 115.195C47.6879 113.855 46.0507 113.056 44.269 112.947C43.6476 112.908 43.0324 112.955 42.4419 113.081C41.3312 113.32 40.2948 113.841 39.4195 114.615C36.6551 117.059 36.3929 121.298 38.8393 124.066L57.6966 145.397C59.2492 147.152 59.0819 149.846 57.3292 151.4L54.0445 154.303C52.1844 155.949 52.0068 158.802 53.6543 160.662L58.0043 165.586C58.8012 166.486 59.9015 167.025 61.1031 167.097C62.3005 167.171 63.4628 166.773 64.363 165.976L123.778 113.455C122.896 112.751 122.043 111.995 121.271 111.12C120.516 110.265 120.594 108.96 121.449 108.207L118.381 104.734C117.528 105.494 116.482 104.761 115.726 103.906" clip-rule="evenodd"/><path fill="#7B80D6" fill-rule="evenodd" d="M142.135 112.308C136.627 109.178 131.53 105.121 127.106 100.114C122.737 95.1741 119.3 89.6412 116.831 83.7305C113.525 89.3439 114.021 96.6853 118.563 101.822C119.316 102.677 119.236 103.981 118.381 104.735L121.449 108.207C122.304 107.448 123.608 107.532 124.366 108.387C128.914 113.532 136.152 114.917 142.135 112.308Z" clip-rule="evenodd"/><path fill="#ACB0FF" fill-rule="evenodd" d="M211.264 63.4949C210.608 74.1663 205.835 83.9418 197.824 91.0211C192.601 95.6394 186.41 98.7506 179.774 100.175C176.234 100.935 172.569 101.216 168.855 100.984C158.184 100.328 148.408 95.5527 141.327 87.5424C134.246 79.5341 130.707 69.2466 131.366 58.5751C132.022 47.9036 136.797 38.1282 144.808 31.0469C152.814 23.9656 163.099 20.4249 173.775 21.0856C184.446 21.7421 194.222 26.5153 201.303 34.5256C208.382 42.538 211.921 52.8234 211.264 63.4949V63.4949ZM219.376 34.5648C218.88 34.7341 218.393 34.9158 217.879 35.0252C217.543 35.0974 217.204 35.1553 216.861 35.2027C215.73 35.3555 214.689 34.5607 214.539 33.4314C214.388 32.3042 215.189 31.2636 216.308 31.1109C218.666 30.7867 220.753 29.5811 222.192 27.6962C225.163 23.8004 224.411 18.2118 220.518 15.2409C216.624 12.2701 211.037 13.0216 208.062 16.9153C206.146 19.4236 205.705 22.6773 206.879 25.6151C207.303 26.6742 206.786 27.8758 205.727 28.299C204.681 28.7264 203.471 28.2061 203.046 27.1491C201.671 23.7096 201.875 19.8551 203.473 16.5849C190.708 7.35035 174.708 4.18958 159.713 7.40816C150.809 9.3199 142.264 13.4716 134.97 19.9191C112.298 39.9594 110.159 74.7114 130.199 97.3798C150.239 120.052 184.987 122.191 207.662 102.153C227.242 84.8399 231.493 56.5622 219.376 34.5648" clip-rule="evenodd"/><path fill="#000" fill-rule="evenodd" d="M124.365 108.386C123.61 107.531 122.303 107.449 121.45 108.207C120.595 108.96 120.517 110.265 121.271 111.12C121.529 111.413 121.795 111.691 122.067 111.958C122.935 112.806 122.947 114.192 122.036 114.995L64.3642 165.978C63.462 166.773 62.3018 167.171 61.1023 167.097C59.9007 167.025 58.8003 166.486 58.0034 165.586L53.6514 160.662C52.004 158.798 52.1794 155.951 54.0437 154.303L57.3283 151.4C59.0811 149.852 59.2483 147.15 57.7 145.399L39.0181 124.269C36.7658 121.721 36.5387 117.815 38.7807 115.257C39.7676 114.128 41.0476 113.382 42.4411 113.081C43.0316 112.955 43.6468 112.907 44.2682 112.947C46.0499 113.056 47.687 113.855 48.8721 115.195L64.5954 132.981C65.9271 134.488 67.6778 135.632 69.6535 136.005C72.3477 136.515 75.0151 135.766 77.0156 133.997C79.0264 132.219 80.0917 129.657 79.9141 126.921C79.782 124.917 78.8612 123.046 77.5317 121.541L70.6383 113.744C68.5221 111.351 68.2166 107.742 70.1345 105.19C72.7792 101.681 77.798 101.625 80.5459 104.732L90.6992 116.219C91.4527 117.07 92.4932 117.579 93.6267 117.65C94.7621 117.716 95.8543 117.342 96.7069 116.591L111.699 103.334C112.61 102.531 113.987 102.698 114.726 103.661C114.761 103.702 114.794 103.747 114.829 103.789C115.314 104.406 116.514 106.09 118.382 104.734C119.247 104.109 119.317 102.676 118.562 101.821C115.238 98.0615 114.082 93.1212 114.996 88.5441C115.376 86.6406 117.965 86.3495 118.855 88.0734C121.07 92.3614 123.826 96.4058 127.105 100.114C130.418 103.863 134.11 107.079 138.065 109.774C139.672 110.866 139.069 113.401 137.134 113.55C132.466 113.905 127.693 112.154 124.365 108.386V108.386ZM207.662 102.151C184.783 122.371 149.612 120.011 129.659 96.7609C110.783 74.7635 112.521 41.0954 133.585 21.1831C141.175 14.011 150.24 9.44014 159.714 7.40865C174.176 4.30568 189.575 7.13407 202.103 15.6254C202.852 16.1333 203.199 17.1036 202.895 17.9563C201.849 20.9023 201.857 24.1808 203.044 27.1475C203.469 28.2066 204.679 28.7268 205.728 28.2995C206.772 27.8825 207.289 26.7077 206.896 25.659C206.223 23.8649 205.947 21.916 206.483 20.0765C208.521 13.1108 216.773 11.3374 221.47 16.0776C224.11 18.7428 224.781 22.9627 223.07 26.301C221.693 28.987 219.203 30.7129 216.308 31.1114C215.189 31.2641 214.386 32.3026 214.539 33.4319C214.69 34.5612 215.73 35.356 216.862 35.2032C217.204 35.1557 217.543 35.0979 217.88 35.0257C218.394 34.9163 218.881 34.7346 219.376 34.5653C231.493 56.5606 227.242 84.8404 207.662 102.151V102.151ZM224.352 35.197C223.648 33.7519 223.906 32.0094 224.971 30.8079C225.145 30.6117 225.312 30.4094 225.475 30.2009C229.825 24.4966 228.727 16.3129 223.022 11.9588C218.493 8.50491 212.404 8.49046 207.908 11.4881C206.552 12.3945 204.836 12.4605 203.465 11.5707C181.79 -2.50928 152.519 -1.10541 132.237 16.8249C120.426 27.2631 113.39 41.6755 112.422 57.4092C112.007 64.1436 112.738 70.7707 114.517 77.0799C114.842 78.2257 114.732 79.4747 114.055 80.4554C110.514 85.565 109.637 92.0497 111.588 97.8489L95.3402 112.127C94.4855 112.879 93.1849 112.796 92.4313 111.943L83.9606 102.36C80.2176 98.1255 73.7825 97.0685 69.2076 100.382C63.9554 104.185 63.2329 111.599 67.4218 116.339L74.6723 124.541C75.4692 125.445 75.8698 126.601 75.7954 127.803C75.7211 129.002 75.1843 130.105 74.2801 130.902C73.38 131.699 72.2218 132.097 71.0202 132.023C69.8207 131.951 68.7183 131.41 67.9214 130.51L52.2228 112.751C50.565 110.878 48.3849 109.462 45.9281 108.999C42.5588 108.368 39.206 109.293 36.6852 111.522C32.2156 115.476 31.7923 122.328 35.7438 126.8L53.2385 146.761C53.9859 147.616 53.9033 148.917 53.0527 149.668L51.3082 151.21C47.7387 154.367 47.4021 159.824 50.5588 163.397L54.7601 168.15C55.8481 169.378 57.2148 170.375 58.7838 170.85C60.2723 171.298 61.7856 171.348 63.204 171.046C64.6347 170.737 65.9704 170.066 67.0976 169.071L127.404 115.759C131.354 117.666 135.832 118.201 140.084 117.286C141.763 116.927 143.402 116.333 144.961 115.517C146.047 114.949 147.325 114.943 148.456 115.414C159.623 120.09 171.996 121.227 183.788 118.696C193.361 116.644 202.553 112.177 210.396 105.244C230.68 87.3116 235.663 58.4332 224.352 35.197" clip-rule="evenodd"/><path fill="#000" fill-rule="evenodd" d="M158.914 71.9971C152.871 65.1594 153.517 54.6778 160.353 48.635C162.553 46.6882 165.13 45.4371 167.816 44.859C173.475 43.6471 179.615 45.4371 183.717 50.074C189.76 56.9096 189.115 67.3932 182.276 73.436C175.438 79.4789 164.961 78.8368 158.914 71.9971V71.9971ZM138.132 47.0928C138.733 45.5733 139.468 44.1054 140.331 42.7181C145.893 33.7602 154.312 27.9527 163.728 25.9336C166.903 25.2502 170.192 25.0004 173.52 25.2069C180.703 25.6487 187.414 28.1901 193.001 32.4657C195.084 34.0554 195.224 37.1439 193.261 38.8802L186.663 44.7124C185.918 45.3731 184.827 45.3503 184.043 44.7372C176.346 38.7212 165.19 38.843 157.619 45.5423C150.042 52.2396 148.552 63.2931 153.577 71.6688C154.089 72.5214 153.977 73.6053 153.232 74.266C153.232 74.266 149.551 77.5238 146.634 80.1044C144.668 81.8448 141.625 81.3142 140.298 79.0474C134.819 69.6931 133.749 58.1937 138.132 47.0928V47.0928ZM207.143 63.2414C206.369 75.8267 199.211 87.0267 187.46 93.1625C184.757 94.5725 181.848 95.5924 178.859 96.187C168.09 98.332 157.694 95.772 149.634 89.6074C147.548 88.0156 147.396 84.9312 149.363 83.1929C152.299 80.5978 156.013 77.3152 156.013 77.3152C156.748 76.667 157.824 76.6876 158.596 77.2925C163.497 81.1367 169.792 82.5075 175.688 81.244C179.043 80.5235 182.265 78.9607 185.011 76.5287C192.588 69.8293 194.076 58.778 189.051 50.4022C188.539 49.5475 188.651 48.4636 189.398 47.803L195.994 41.9707C197.958 40.2345 201.005 40.7547 202.328 43.0174C205.886 49.0871 207.585 56.059 207.143 63.2414V63.2414ZM173.774 21.0861C163.098 20.4254 152.815 23.964 144.807 31.0474C136.796 38.1287 132.023 47.9042 131.365 58.5756C130.708 69.2471 134.247 79.5325 141.326 87.5429C148.407 95.5532 158.183 100.328 168.854 100.985C172.568 101.214 176.235 100.935 179.774 100.174C186.409 98.7511 192.6 95.6399 197.826 91.0216C205.836 83.9423 210.607 74.1669 211.264 63.4954C211.922 52.8239 208.384 42.5364 201.302 34.5261C194.223 26.5158 184.446 21.7426 173.774 21.0861" clip-rule="evenodd"/><path fill="#ACB0FF" fill-rule="evenodd" d="M182.277 73.4367C189.116 67.3918 189.76 56.9103 183.716 50.0747C179.615 45.4357 173.473 43.6458 167.817 44.8597C165.129 45.4357 162.552 46.6889 160.353 48.6336C153.516 54.6785 152.872 65.1601 158.914 71.9978C164.959 78.8354 175.437 79.4796 182.277 73.4367" clip-rule="evenodd"/><path fill="#7B80D6" fill-rule="evenodd" d="M30.5609 42.6564C32.2827 42.6564 33.6783 44.052 33.6783 45.7738V45.7759C33.6783 46.9155 34.6011 47.8404 35.7428 47.8404C36.8824 47.8404 37.8073 46.9155 37.8073 45.7759V45.7738C37.8073 44.052 39.2029 42.6564 40.9247 42.6564C42.0643 42.6564 42.9892 41.7336 42.9892 40.5919C42.9892 39.4523 42.0643 38.5274 40.9247 38.5274C39.2029 38.5274 37.8073 37.1318 37.8073 35.41C37.8073 34.2704 36.8824 33.3455 35.7428 33.3455C34.6011 33.3455 33.6783 34.2704 33.6783 35.41C33.6783 37.1318 32.2827 38.5274 30.5609 38.5274C29.4192 38.5274 28.4963 39.4523 28.4963 40.5919C28.4963 41.7336 29.4192 42.6564 30.5609 42.6564Z" clip-rule="evenodd"/><path fill="#fff" fill-rule="evenodd" d="M14.2784 84.1786C14.8069 84.1786 15.3354 83.9763 15.738 83.5737L18.1803 81.1293C18.9855 80.3241 18.9855 79.0152 18.1803 78.2101C17.3731 77.4049 16.0642 77.4049 15.2611 78.2101L12.8188 80.6545C12.0116 81.4617 12.0116 82.7665 12.8188 83.5737C13.2214 83.9763 13.7499 84.1786 14.2784 84.1786V84.1786ZM2.06473 96.3923C2.59324 96.3923 3.12176 96.1899 3.52434 95.7874L5.96666 93.343C6.77182 92.5378 6.77182 91.231 5.96666 90.4238C5.15944 89.6186 3.8526 89.6186 3.04744 90.4238L0.605114 92.8681C-0.202112 93.6754 -0.202112 94.9801 0.605114 95.7874C1.00769 96.1899 1.53621 96.3923 2.06473 96.3923V96.3923ZM15.2603 95.7874C15.6629 96.1899 16.1914 96.3923 16.7199 96.3923C17.2484 96.3923 17.7769 96.1899 18.1795 95.7874C18.9867 94.9801 18.9867 93.6754 18.1795 92.8681L15.7372 90.4238C14.932 89.6186 13.6252 89.6186 12.818 90.4238C12.0128 91.231 12.0128 92.5378 12.818 93.343L15.2603 95.7874ZM3.04661 83.5737C3.44919 83.9763 3.97771 84.1786 4.50622 84.1786C5.03474 84.1786 5.56325 83.9763 5.96583 83.5737C6.77306 82.7665 6.77306 81.4617 5.96583 80.6545L3.52351 78.2101C2.71835 77.4049 1.41151 77.4049 0.604288 78.2101C-0.200873 79.0152 -0.200873 80.3241 0.604288 81.1293L3.04661 83.5737Z" clip-rule="evenodd"/><path fill="#fff" fill-rule="evenodd" d="M227.856 169.949L240.244 148.496L252.631 169.949H227.856Z" clip-rule="evenodd"/><path fill="#000" fill-rule="evenodd" d="M231.434 167.884H249.054L240.245 152.623L231.434 167.884ZM252.632 172.013H227.858C227.119 172.013 226.438 171.621 226.068 170.981C225.7 170.341 225.7 169.556 226.068 168.916L238.455 147.462C239.194 146.184 241.294 146.184 242.033 147.462L254.42 168.916C254.79 169.556 254.79 170.341 254.42 170.981C254.05 171.621 253.369 172.013 252.632 172.013Z" clip-rule="evenodd"/></g><defs><clipPath id="clip0_6_2"><rect width="256" height="173.419" fill="#fff"/></clipPath></defs></svg>